# xmcd CD database file generated by OrangeCD 6.5
#
# Track frame offsets:
#	182
#	13020
#	25740
#	39595
#	52817
#	66915
#	81522
#	94445
#	109215
#	123907
#	136950
#	149930
#	166080
#	180007
#	192830
#	206347
#	219020
#	231925
#	244660
#	257397
#
# Disc length: 3599 seconds
#
# Revision: 1
# Processed by: cddbd v1.5.2PL0 Copyright (c) Steve Scherf et al.
# Submitted via: OrangeCD 6.5
#
DISCID=0f0e0d14
DTITLE=Robert Nighthawk and Forrest City Joe - Robert Nighthawk and Forrest City Jo
DTITLE=e
DYEAR=1996
DGENRE=Blues
TTITLE0=My Sweet Lovin' Mama
TTITLE1=Down The Line
TTITLE2=Sweet Black Angel
TTITLE3=Handsome Lover
TTITLE4=She Knows How To Love A Man
TTITLE5=Annie Lee Blues
TTITLE6=Sugar Papa
TTITLE7=Return Mail Blues
TTITLE8=Good News
TTITLE9=Six Three O
TTITLE10=Jackson Town Gal
TTITLE11=Sorry My Angel
TTITLE12=Someday
TTITLE13=Special Delivery Man
TTITLE14=Shady Lane Woman
TTITLE15=A Woman On Every Street
TTITLE16=Sawdust Bottom
TTITLE17=Ash Street Boogie
TTITLE18=Mean Mistreatin' Woman
TTITLE19=Lonesome Day Blues
EXTD=
EXTT0=
EXTT1=
EXTT2=
EXTT3=
EXTT4=
EXTT5=
EXTT6=
EXTT7=
EXTT8=
EXTT9=
EXTT10=
EXTT11=
EXTT12=
EXTT13=
EXTT14=
EXTT15=
EXTT16=
EXTT17=
EXTT18=
EXTT19=
PLAYORDER=
